<svg width="280" height="156" viewBox="0 0 140 78" fill="none" xmlns="http://www.w3.org/2000/svg">
<path d="M83 35V32H92V35H83ZM89 44V41H83V38H80V35H83V38H89V41H92V44H89ZM80 47V44H89V47H80ZM98 47V32H101V44H107V47H98ZM116 47V44H113V35H116V32H122V35H125V44H122V47H116ZM116 43.88H122V35.12H116V43.88ZM134 47V35H131V32H140V35H137V47H134Z" fill="white"/>
<g clip-path="url(#clip0_0_1)">
<path d="M17 73H76V22.2308C76 13.8538 69.3625 7 61.25 7H31.75C23.6375 7 17 13.8538 17 22.2308V73Z" stroke="white" stroke-width="3" stroke-miterlimit="10" stroke-linecap="round" stroke-linejoin="round"/>
<path d="M36.5625 26.8125H56.0625V51.1875H36.5625V26.8125Z" stroke="white" stroke-width="3" stroke-miterlimit="10" stroke-linecap="round" stroke-linejoin="round"/>
<path d="M56.0625 26.8125H75.5625V51.1875H56.0625V26.8125Z" stroke="white" stroke-width="3" stroke-miterlimit="10" stroke-linecap="round" stroke-linejoin="round"/>
<path d="M17.0625 26.8125H36.5625V51.1875H17.0625V26.8125Z" stroke="white" stroke-width="3" stroke-miterlimit="10" stroke-linecap="round" stroke-linejoin="round"/>
<path d="M7.3125 17.0625C4.62011 17.0625 2.4375 14.8799 2.4375 12.1875C2.4375 9.49511 4.62011 7.3125 7.3125 7.3125C10.0049 7.3125 12.1875 9.49511 12.1875 12.1875C12.1875 14.8799 10.0049 17.0625 7.3125 17.0625Z" stroke="white" stroke-width="3" stroke-miterlimit="10" stroke-linecap="round" stroke-linejoin="round"/>
<path d="M17.0625 46.3125H7.3125V17.0625" stroke="white" stroke-width="3" stroke-miterlimit="10" stroke-linecap="round" stroke-linejoin="round"/>
<path d="M21 47V32H30V35H33V44H30V47H21ZM24 38H29.88V35H24V38ZM24 44H29.88V41H24V44Z" fill="white"/>
<path d="M45 47V32H48V47H45Z" fill="white"/>
<path d="M63 35V32H72V35H63ZM60 44V35H63V44H60ZM69 44V41H66V38H72V44H69ZM63 47V44H69V47H63Z" fill="white"/>
<path d="M21 70V55H24V58H27V61H30V64H27V61H24V70H21ZM33 70V61H30V58H33V55H36V70H33ZM42 70V58H45V55H51V58H54V70H51V64H45V70H42ZM45 61H51V58.12H45V61ZM69 61V58H63V55H69V58H72V61H69ZM63 70V67H60V58H63V67H69V70H63ZM69 67V64H72V67H69Z" fill="white"/>
</g>
<path d="M50.5926 16.5375C50.8892 16.2594 51.075 15.8646 51.075 15.4269C51.075 14.5871 50.3917 13.9038 49.5519 13.9038H49.1711V13.5231C49.1712 12.6833 48.4879 12 47.6481 12C47.2104 12 46.8156 12.1858 46.5375 12.4824C46.2594 12.1858 45.8646 12 45.4269 12C44.5871 12 43.9039 12.6833 43.9039 13.5231V13.9038H43.5231C42.6833 13.9038 42 14.5871 42 15.4269C42 15.8646 42.1858 16.2594 42.4824 16.5375C42.1858 16.8156 42 17.2105 42 17.6481C42 18.4879 42.6833 19.1712 43.5231 19.1712H43.9039V19.552C43.9039 20.3918 44.5871 21.0751 45.427 21.0751C45.7355 21.0751 46.0228 20.9826 46.263 20.8242C46.3533 21.2197 46.4866 21.5846 46.6584 21.8996C47.0454 22.6092 47.5885 23 48.1875 23V22.175C47.8094 22.175 47.4036 21.7273 47.1635 20.9955C47.3158 21.0468 47.4786 21.075 47.6481 21.075C48.4879 21.075 49.1711 20.3917 49.1711 19.5519V19.1712H49.5519C50.3917 19.1712 51.075 18.4879 51.075 17.6481C51.075 17.2104 50.8892 16.8156 50.5926 16.5375ZM46.125 19.5519C46.125 19.9368 45.8118 20.25 45.4269 20.25C45.042 20.25 44.7288 19.9368 44.7288 19.5519V18.3461H43.523C43.1381 18.3461 42.825 18.033 42.825 17.6481C42.825 17.2632 43.1381 16.95 43.523 16.95H46.125L46.125 19.5519ZM46.125 16.125H43.5231C43.1382 16.125 42.825 15.8118 42.825 15.4269C42.825 15.042 43.1382 14.7288 43.5231 14.7288H44.7289V13.5231C44.7289 13.1382 45.042 12.825 45.4269 12.825C45.8118 12.825 46.125 13.1382 46.125 13.5231V16.125H46.125ZM49.5519 18.3462H48.3461V19.552C48.3461 19.9369 48.033 20.25 47.648 20.25C47.2632 20.25 46.95 19.9368 46.95 19.5519V16.95H49.5519C49.9368 16.95 50.25 17.2632 50.25 17.6481C50.25 18.033 49.9368 18.3462 49.5519 18.3462ZM49.5519 16.125H46.95V13.5231C46.95 13.1382 47.2632 12.825 47.6481 12.825C48.033 12.825 48.3462 13.1382 48.3462 13.5231L48.3461 14.7289H49.5519C49.9368 14.7289 50.25 15.042 50.25 15.427C50.25 15.8118 49.9368 16.125 49.5519 16.125Z" fill="white"/>
<path d="M80 70V55H83V61H89V55H92V70H89V64H83V70H80ZM98 70V55H101V70H98ZM107 70V55H110V58H113V61H116V64H119V55H122V70H119V67H116V64H113V61H110V70H107ZM128 70V55H137V58H131V61H137V64H131V67H137V70H128Z" fill="white"/>
<defs>
<clipPath id="clip0_0_1">
<rect width="78" height="78" fill="white" transform="matrix(-1 0 0 1 78 0)"/>
</clipPath>
</defs>
</svg>
