<svg width="312" height="178" viewBox="0 0 156 84" fill="none" xmlns="http://www.w3.org/2000/svg">
<path d="M0 84V69H3V81H9V84H0ZM15 84V69H18V84H15ZM24 84V69H27V72H30V75H33V78H30V75H27V84H24ZM36 84V75H33V72H36V69H39V84H36ZM45 84V69H48V84H45ZM57 84V72H54V69H63V72H60V84H57ZM69 84V69H72V81H78V84H69ZM84 84V69H93V72H87V75H93V78H87V81H93V84H84ZM102 84V72H99V69H108V72H105V84H102ZM117 84V72H114V69H123V72H120V84H117ZM129 84V69H138V72H132V75H138V78H132V81H138V84H129ZM144 84V69H153V72H156V75H153V81H156V84H153V81H150V78H147V84H144ZM147 75H152.88V72H147V75Z" fill="black"/>
<path d="M44 17.25C44 14.9625 44.9087 12.7687 46.5262 11.1512C48.1437 9.5337 50.3375 8.625 52.625 8.625H104.375C106.662 8.625 108.856 9.5337 110.474 11.1512C112.091 12.7687 113 14.9625 113 17.25V51.75C113 54.0375 112.091 56.2313 110.474 57.8488C108.856 59.4663 106.662 60.375 104.375 60.375H52.625C50.3375 60.375 48.1437 59.4663 46.5262 57.8488C44.9087 56.2313 44 54.0375 44 51.75V17.25ZM52.625 12.9375C51.4813 12.9375 50.3844 13.3919 49.5756 14.2006C48.7669 15.0094 48.3125 16.1063 48.3125 17.25V18.1858L78.5 36.2983L108.688 18.1858V17.25C108.688 16.1063 108.233 15.0094 107.424 14.2006C106.616 13.3919 105.519 12.9375 104.375 12.9375H52.625ZM108.688 23.2142L88.1686 35.5264L108.688 47.9291V23.2142ZM108.541 52.8756L83.9812 38.0362L78.5 41.3267L73.0145 38.0362L48.4591 52.8713C48.7058 53.7873 49.2477 54.5965 50.0008 55.1735C50.7539 55.7504 51.6763 56.0629 52.625 56.0625H104.375C105.323 56.0631 106.245 55.7513 106.998 55.1752C107.751 54.5991 108.293 53.7908 108.541 52.8756ZM48.3125 47.9291L68.8314 35.5264L48.3125 23.2142V47.9248V47.9291Z" fill="black"/>
<path d="M78.8125 20.5833V23.8125H82.0417M78.8125 29.625C75.6023 29.625 73 27.0227 73 23.8125C73 20.6023 75.6023 18 78.8125 18C82.0227 18 84.625 20.6023 84.625 23.8125C84.625 27.0227 82.0227 29.625 78.8125 29.625Z" stroke="black" stroke-width="2" stroke-linecap="round" stroke-linejoin="round"/>
</svg>
