<svg width="104" height="56" viewBox="0 0 104 56" fill="none" xmlns="http://www.w3.org/2000/svg">
<path d="M41.5 14C37.5 10.5 28 11.3889 27 11.5C16.7585 12.6383 14.4744 16.577 14 18C13 21 20 22.4 22 22C24.5 21.5 23.978 21.6913 24 22C24.1449 24.0291 24.8057 24.8592 25.5 25.5C26.7219 26.6279 28.3372 26.5 29.5 26.5C30.5 26.5 33.8333 25.5 34 26.5C34.4 28.9 37.1667 28.8333 38.5 28.5C40.5 27.7 41.5 26.3333 41.5 26" stroke="black"/>
<path d="M62 14.6813C66 11.1813 75.5 12.0702 76.5 12.1814C86.7415 13.3197 89.0256 17.2583 89.5 18.6813C90.5 21.6813 83.5 23.0814 81.5 22.6814C79 22.1814 79.522 22.3726 79.5 22.6814C79.3551 24.7104 78.6943 25.5405 78 26.1814C76.7781 27.3092 75.1628 27.1813 74 27.1813C73 27.1814 69.6667 26.1813 69.5 27.1813C69.1 29.5813 66.3333 29.5147 65 29.1813C63 28.3813 62 27.0146 62 26.6813" stroke="black"/>
<path d="M49.3389 6.19336C50.4597 4.04076 53.5403 4.04076 54.6611 6.19336L57.4229 11.499C58.0027 12.6127 59.0722 13.3903 60.3105 13.5977L66.2109 14.585C68.6043 14.986 69.5563 17.9154 67.8555 19.6465L63.6631 23.9131C62.783 24.8087 62.374 26.0657 62.5596 27.3076L63.4434 33.2236C63.8019 35.6241 61.3098 37.4344 59.1377 36.3516L53.7842 33.6826C52.6607 33.1227 51.3393 33.1227 50.2158 33.6826L44.8623 36.3516C42.6902 37.4344 40.1981 35.6241 40.5566 33.2236L41.4404 27.3076C41.626 26.0657 41.217 24.8087 40.3369 23.9131L36.1445 19.6465C34.4437 17.9154 35.3957 14.986 37.7891 14.585L43.6895 13.5977C44.9278 13.3903 45.9973 12.6127 46.5771 11.499L49.3389 6.19336Z" fill="#EDE57F" stroke="black"/>
<path d="M5.14893 48.4917C5.02197 48.4917 4.91455 48.46 4.82666 48.3965C4.73389 48.333 4.62402 48.2427 4.49707 48.1255C4.37012 48.0083 4.22852 47.8643 4.07227 47.6934C4.01367 47.625 3.98438 47.564 3.98438 47.5103C3.98438 47.4565 4.01367 47.3955 4.07227 47.3271C4.375 46.9854 4.65088 46.7339 4.8999 46.5728C4.9585 46.5337 5.0415 46.5142 5.14893 46.5142C5.48096 46.5142 5.7666 46.3896 6.00586 46.1406C6.25 45.8916 6.36719 45.4888 6.35742 44.9321C6.35254 44.3315 6.20361 43.9116 5.91064 43.6724C5.62256 43.4331 5.22705 43.3135 4.72412 43.3135H4.37256C4.05029 43.3135 3.83057 43.3818 3.71338 43.5186C3.59619 43.6553 3.5376 43.8896 3.5376 44.2217V51.6118C3.5376 51.7583 3.50586 51.8608 3.44238 51.9194C3.38379 51.9731 3.28125 52 3.13477 52H1.57471C1.42822 52 1.32324 51.9731 1.25977 51.9194C1.20117 51.8608 1.17188 51.7583 1.17188 51.6118V43.46C1.17188 42.9717 1.21582 42.5859 1.30371 42.3027C1.39648 42.0146 1.57227 41.8096 1.83105 41.6875C2.09473 41.5605 2.47803 41.4971 2.98096 41.4971H4.72412C6.12549 41.4971 7.16309 41.7729 7.83691 42.3247C8.51074 42.8716 8.84766 43.7114 8.84766 44.8442C8.84766 45.6938 8.66943 46.3872 8.31299 46.9243C7.96143 47.4614 7.50244 47.8569 6.93604 48.1108C6.37451 48.3647 5.77881 48.4917 5.14893 48.4917ZM12.7515 51.6118C12.7515 51.7583 12.7197 51.8608 12.6562 51.9194C12.5977 51.9731 12.4951 52 12.3486 52H10.7886C10.6421 52 10.5371 51.9731 10.4736 51.9194C10.415 51.8608 10.3857 51.7583 10.3857 51.6118V43.46C10.3857 42.9717 10.4297 42.5859 10.5176 42.3027C10.6104 42.0146 10.7861 41.8096 11.0449 41.6875C11.3086 41.5605 11.6919 41.4971 12.1948 41.4971H14.1357C16.6846 41.4971 17.959 42.4761 17.959 44.4341C17.959 45.0298 17.8589 45.5181 17.6587 45.8989C17.4585 46.2798 17.2095 46.5776 16.9116 46.7925C16.6138 47.0024 16.3208 47.1611 16.0327 47.2686V47.3052C16.3599 47.52 16.6699 47.8032 16.9629 48.1548C17.2607 48.5015 17.5293 48.8799 17.7686 49.29C18.0078 49.6953 18.2104 50.0981 18.3765 50.4985C18.5425 50.894 18.6572 51.248 18.7207 51.5605C18.75 51.707 18.75 51.8169 18.7207 51.8901C18.6963 51.9634 18.6133 52 18.4717 52H16.7798C16.6528 52 16.5405 51.9731 16.4429 51.9194C16.3501 51.8657 16.2646 51.7412 16.1865 51.5459C15.8154 50.6133 15.3882 49.854 14.9048 49.2681C14.4214 48.6772 13.9551 48.2036 13.5059 47.8472C13.2178 47.6177 13.0737 47.4541 13.0737 47.3564C13.0737 47.2783 13.1201 47.1709 13.2129 47.0342C13.2715 46.9512 13.3569 46.8511 13.4692 46.7339C13.5815 46.6167 13.6792 46.5288 13.7622 46.4702C13.8452 46.4116 13.9111 46.375 13.96 46.3604C14.0137 46.3457 14.0942 46.3384 14.2017 46.3384C14.563 46.3384 14.8633 46.2139 15.1025 45.9648C15.3467 45.7158 15.4688 45.3228 15.4688 44.7856C15.4688 44.2778 15.3394 43.9067 15.0806 43.6724C14.8267 43.4331 14.4751 43.3135 14.0259 43.3135H13.5864C13.2642 43.3135 13.0444 43.3818 12.9272 43.5186C12.8101 43.6553 12.7515 43.8896 12.7515 44.2217V51.6118ZM24.6021 52.1831C23.5864 52.1831 22.7026 51.9878 21.9507 51.5972C21.1987 51.2065 20.6152 50.6182 20.2002 49.832C19.79 49.0459 19.585 48.0645 19.585 46.8877C19.585 45.0176 20.0415 43.6235 20.9546 42.7056C21.8677 41.7827 23.1396 41.3213 24.7705 41.3213C26.2988 41.3213 27.5073 41.7729 28.396 42.6763C29.2847 43.5747 29.729 44.9077 29.729 46.6753C29.729 47.9253 29.5215 48.958 29.1064 49.7734C28.6914 50.584 28.1006 51.1895 27.334 51.5898C26.5674 51.9854 25.6567 52.1831 24.6021 52.1831ZM24.646 50.2056C25.5249 50.2056 26.1768 49.8906 26.6016 49.2607C27.0264 48.6309 27.2388 47.813 27.2388 46.8071C27.2388 45.6401 27.0386 44.7637 26.6382 44.1777C26.2378 43.5918 25.5933 43.2988 24.7046 43.2988C22.9517 43.2988 22.0752 44.4536 22.0752 46.7632C22.0752 47.7935 22.2852 48.626 22.7051 49.2607C23.1299 49.8906 23.7769 50.2056 24.646 50.2056ZM34.4458 48.9385C34.4458 49.7393 34.3628 50.4253 34.1968 50.9966C34.0356 51.5679 33.811 52.0537 33.5229 52.4541C33.2397 52.8545 32.915 53.1963 32.5488 53.4795C32.1875 53.7676 31.8066 54.0288 31.4062 54.2632C31.2402 54.356 31.1084 54.3242 31.0107 54.168L30.1904 52.8569C30.083 52.6812 30.1196 52.5396 30.3003 52.4321C30.6177 52.2466 30.9106 52.0171 31.1792 51.7437C31.4478 51.4653 31.665 51.104 31.8311 50.6597C31.9971 50.2104 32.0801 49.6367 32.0801 48.9385V42.6689C32.0801 42.5273 32.1045 42.4199 32.1533 42.3467C32.373 42.0244 32.6807 41.6851 33.0762 41.3286C33.1494 41.27 33.2129 41.2407 33.2666 41.2407C33.3252 41.2407 33.3862 41.27 33.4497 41.3286C33.6646 41.5142 33.8452 41.6924 33.9917 41.8633C34.1382 42.0293 34.2651 42.1904 34.3726 42.3467C34.4214 42.4248 34.4458 42.5322 34.4458 42.6689V48.9385ZM38.606 52C38.103 52 37.7197 51.9365 37.4561 51.8096C37.1973 51.6826 37.0215 51.4751 36.9287 51.187C36.8408 50.8989 36.7969 50.5156 36.7969 50.0371V43.46C36.7969 42.9717 36.8408 42.5859 36.9287 42.3027C37.0215 42.0146 37.1973 41.8096 37.4561 41.6875C37.7197 41.5605 38.103 41.4971 38.606 41.4971H42.0483C42.1655 41.4971 42.2534 41.5166 42.312 41.5557C42.439 41.6436 42.5708 41.7485 42.7075 41.8706C42.8442 41.9927 42.9883 42.1392 43.1396 42.3101C43.1885 42.3735 43.2129 42.4248 43.2129 42.4639C43.2129 42.5078 43.1885 42.5566 43.1396 42.6104C42.9883 42.7812 42.8442 42.9277 42.7075 43.0498C42.5708 43.1719 42.439 43.2769 42.312 43.3647C42.2437 43.4038 42.1558 43.4233 42.0483 43.4233H39.9976C39.6753 43.4233 39.4556 43.4917 39.3384 43.6284C39.2212 43.7651 39.1626 43.9995 39.1626 44.3315V45.7524H41.792C41.9092 45.7524 41.9971 45.772 42.0557 45.811C42.1826 45.8989 42.3145 46.0039 42.4512 46.126C42.5879 46.248 42.7319 46.3945 42.8833 46.5654C42.9321 46.6289 42.9565 46.6802 42.9565 46.7192C42.9565 46.7632 42.9321 46.812 42.8833 46.8657C42.7319 47.0366 42.5879 47.1831 42.4512 47.3052C42.3145 47.4272 42.1826 47.5322 42.0557 47.6201C41.9873 47.6592 41.8994 47.6787 41.792 47.6787H39.1626V49.1582C39.1626 49.4854 39.2212 49.7197 39.3384 49.8613C39.4556 50.0029 39.6753 50.0737 39.9976 50.0737H42.29C42.4072 50.0737 42.4951 50.0933 42.5537 50.1323C42.6807 50.2202 42.8125 50.3252 42.9492 50.4473C43.0859 50.5693 43.23 50.7158 43.3813 50.8867C43.4302 50.9502 43.4546 51.0015 43.4546 51.0405C43.4546 51.0845 43.4302 51.1333 43.3813 51.187C43.23 51.3579 43.0859 51.5044 42.9492 51.6265C42.8125 51.7485 42.6807 51.8535 42.5537 51.9414C42.4854 51.9805 42.3975 52 42.29 52H38.606ZM49.3359 50.2056C49.6924 50.2056 49.9707 50.1689 50.1709 50.0957C50.376 50.0225 50.5347 49.9321 50.647 49.8247C50.7593 49.7173 50.8569 49.6099 50.9399 49.5024C51.0181 49.4048 51.0815 49.3315 51.1304 49.2827C51.1841 49.2339 51.2573 49.1997 51.3501 49.1802C51.4282 49.1558 51.5527 49.1411 51.7236 49.1362C51.8994 49.1265 52.0728 49.1216 52.2437 49.1216C52.4194 49.1216 52.5415 49.1265 52.6099 49.1362C52.7124 49.1411 52.7832 49.1606 52.8223 49.1948C52.8613 49.229 52.8857 49.3022 52.8955 49.4146C52.9102 49.5708 52.9175 49.7563 52.9175 49.9712C52.9224 50.186 52.9199 50.3716 52.9102 50.5278C52.9053 50.5767 52.8955 50.6182 52.8809 50.6523C52.8711 50.6865 52.8467 50.7378 52.8076 50.8062C52.7588 50.8843 52.6636 50.999 52.522 51.1504C52.3804 51.2969 52.1729 51.4507 51.8994 51.6118C51.626 51.7681 51.272 51.9023 50.8374 52.0146C50.4077 52.127 49.8779 52.1831 49.248 52.1831C48.5742 52.1831 47.9443 52.0977 47.3584 51.9268C46.7725 51.751 46.2573 51.458 45.813 51.0479C45.3735 50.6377 45.0293 50.0835 44.7803 49.3853C44.5361 48.687 44.4141 47.8154 44.4141 46.7705C44.4141 45.6084 44.6143 44.6221 45.0146 43.8115C45.4199 42.9961 45.9937 42.376 46.7358 41.9512C47.478 41.5264 48.3569 41.314 49.3726 41.314C50.0854 41.314 50.6567 41.3872 51.0864 41.5337C51.521 41.6802 51.8506 41.8535 52.0752 42.0537C52.2998 42.249 52.4585 42.4199 52.5513 42.5664C52.5854 42.6201 52.6099 42.6689 52.6245 42.7129C52.6392 42.752 52.6489 42.8154 52.6538 42.9033C52.6685 43.0205 52.6709 43.1914 52.6611 43.416C52.6562 43.6406 52.6392 43.8384 52.6099 44.0093C52.5903 44.1167 52.5586 44.1875 52.5146 44.2217C52.4951 44.2412 52.4609 44.2583 52.4121 44.2729C52.3633 44.2876 52.29 44.2949 52.1924 44.2949C52.0361 44.2949 51.8604 44.29 51.665 44.2803C51.4697 44.2656 51.3232 44.251 51.2256 44.2363C51.1084 44.2168 51.0229 44.1899 50.9692 44.1558C50.9155 44.1167 50.8618 44.0581 50.8081 43.98C50.7202 43.853 50.5688 43.7065 50.354 43.5405C50.1392 43.3745 49.7852 43.2915 49.292 43.2915C48.5986 43.2915 48.0273 43.5601 47.5781 44.0972C47.1289 44.6294 46.9043 45.4937 46.9043 46.6899C46.9043 47.8813 47.1387 48.7651 47.6074 49.3413C48.0811 49.9175 48.6572 50.2056 49.3359 50.2056ZM59.0771 51.6118C59.0771 51.7583 59.0454 51.8608 58.9819 51.9194C58.9233 51.9731 58.8208 52 58.6743 52H57.1143C56.9678 52 56.8628 51.9731 56.7993 51.9194C56.7407 51.8608 56.7114 51.7583 56.7114 51.6118V43.4233H54.5288C54.4116 43.4233 54.3237 43.4038 54.2651 43.3647C54.1382 43.2769 54.0063 43.1719 53.8696 43.0498C53.7378 42.9277 53.5938 42.7812 53.4375 42.6104C53.3887 42.5469 53.3643 42.4956 53.3643 42.4565C53.3643 42.4126 53.3887 42.3638 53.4375 42.3101C53.5938 42.1392 53.7378 41.9927 53.8696 41.8706C54.0063 41.7485 54.1382 41.6436 54.2651 41.5557C54.3335 41.5166 54.4214 41.4971 54.5288 41.4971H61.2671C61.3843 41.4971 61.4722 41.5166 61.5308 41.5557C61.6577 41.6436 61.7896 41.7485 61.9263 41.8706C62.063 41.9927 62.207 42.1392 62.3584 42.3101C62.4072 42.3735 62.4316 42.4248 62.4316 42.4639C62.4316 42.5078 62.4072 42.5566 62.3584 42.6104C62.207 42.7812 62.063 42.9277 61.9263 43.0498C61.7896 43.1719 61.6577 43.2769 61.5308 43.3647C61.4624 43.4038 61.3745 43.4233 61.2671 43.4233H59.0771V51.6118ZM70.5908 52.1758C69.9707 52.1758 69.4556 52.1196 69.0454 52.0073C68.6401 51.895 68.313 51.7559 68.064 51.5898C67.8198 51.4189 67.6318 51.2505 67.5 51.0845C67.4561 51.021 67.417 50.96 67.3828 50.9014C67.3486 50.8428 67.3242 50.7769 67.3096 50.7036C67.29 50.606 67.2705 50.479 67.251 50.3228C67.2314 50.1616 67.229 49.9761 67.2437 49.7661C67.2485 49.6782 67.2656 49.6172 67.2949 49.583C67.3291 49.5439 67.3853 49.5146 67.4634 49.4951C67.605 49.4609 67.7881 49.4316 68.0127 49.4072C68.2422 49.3779 68.4058 49.3633 68.5034 49.3633C68.606 49.3633 68.689 49.3828 68.7524 49.4219C68.8159 49.4609 68.8916 49.5269 68.9795 49.6196C69.0771 49.7222 69.2456 49.854 69.4849 50.0151C69.7241 50.1714 70.0928 50.2495 70.5908 50.2495C71.0693 50.2495 71.4307 50.1494 71.6748 49.9492C71.9189 49.749 72.041 49.4707 72.041 49.1143C72.041 48.9238 71.9824 48.7456 71.8652 48.5796C71.7529 48.4087 71.5454 48.2402 71.2427 48.0742C70.9399 47.9033 70.5078 47.7251 69.9463 47.5396C69.0186 47.2271 68.3496 46.8389 67.9395 46.375C67.5293 45.9111 67.3242 45.2666 67.3242 44.4414C67.3242 43.7578 67.4902 43.1865 67.8223 42.7275C68.1543 42.2686 68.6133 41.9219 69.1992 41.6875C69.7852 41.4531 70.4614 41.3359 71.228 41.3359C71.8188 41.3359 72.3071 41.4067 72.6929 41.5483C73.0835 41.6851 73.3862 41.8413 73.6011 42.0171C73.8159 42.188 73.9551 42.3271 74.0186 42.4346C74.0576 42.498 74.082 42.5469 74.0918 42.5811C74.1064 42.6104 74.1162 42.6519 74.1211 42.7056C74.1357 42.8569 74.1406 43.0254 74.1357 43.2109C74.1309 43.3965 74.1138 43.6064 74.0845 43.8408C74.0698 43.9189 74.043 43.9727 74.0039 44.002C73.9697 44.0264 73.916 44.0386 73.8428 44.0386C73.3691 44.0483 73.0029 44.0239 72.7441 43.9653C72.6416 43.9409 72.5732 43.9165 72.5391 43.8921C72.5049 43.8677 72.4609 43.8286 72.4072 43.7749C72.3291 43.6821 72.2046 43.5747 72.0337 43.4526C71.8677 43.3257 71.5991 43.2622 71.228 43.2622C70.7153 43.2622 70.3516 43.3794 70.1367 43.6138C69.9219 43.8433 69.8145 44.1021 69.8145 44.3901C69.8145 44.7319 69.9731 45.0005 70.2905 45.1958C70.6079 45.3862 71.1084 45.6035 71.792 45.8477C72.3633 46.0479 72.854 46.2651 73.2642 46.4995C73.6743 46.7339 73.9868 47.0342 74.2017 47.4004C74.4214 47.7666 74.5312 48.25 74.5312 48.8506C74.5312 49.5977 74.3579 50.2178 74.0112 50.7109C73.6694 51.2041 73.2007 51.5728 72.605 51.8169C72.0142 52.0562 71.3428 52.1758 70.5908 52.1758ZM80.8301 51.6118C80.8301 51.7583 80.7983 51.8608 80.7349 51.9194C80.6763 51.9731 80.5737 52 80.4272 52H78.8672C78.7207 52 78.6157 51.9731 78.5522 51.9194C78.4937 51.8608 78.4644 51.7583 78.4644 51.6118V43.4233H76.2817C76.1646 43.4233 76.0767 43.4038 76.0181 43.3647C75.8911 43.2769 75.7593 43.1719 75.6226 43.0498C75.4907 42.9277 75.3467 42.7812 75.1904 42.6104C75.1416 42.5469 75.1172 42.4956 75.1172 42.4565C75.1172 42.4126 75.1416 42.3638 75.1904 42.3101C75.3467 42.1392 75.4907 41.9927 75.6226 41.8706C75.7593 41.7485 75.8911 41.6436 76.0181 41.5557C76.0864 41.5166 76.1743 41.4971 76.2817 41.4971H83.02C83.1372 41.4971 83.2251 41.5166 83.2837 41.5557C83.4106 41.6436 83.5425 41.7485 83.6792 41.8706C83.8159 41.9927 83.96 42.1392 84.1113 42.3101C84.1602 42.3735 84.1846 42.4248 84.1846 42.4639C84.1846 42.5078 84.1602 42.5566 84.1113 42.6104C83.96 42.7812 83.8159 42.9277 83.6792 43.0498C83.5425 43.1719 83.4106 43.2769 83.2837 43.3647C83.2153 43.4038 83.1274 43.4233 83.02 43.4233H80.8301V51.6118ZM89.6924 42.0757C89.9609 42.4517 90.2344 42.9375 90.5127 43.5332C90.7959 44.124 91.0693 44.7734 91.333 45.4814C91.5967 46.1895 91.8335 46.9146 92.0435 47.6567C92.2583 48.394 92.4341 49.1045 92.5708 49.7881C92.7075 50.4717 92.7856 51.0796 92.8052 51.6118C92.8101 51.8706 92.6929 52 92.4536 52H90.6812C90.4517 52 90.332 51.8853 90.3223 51.6558C90.3027 51.1089 90.2148 50.4448 90.0586 49.6636H86.0596C85.9229 50.4253 85.8447 51.0894 85.8252 51.6558C85.8154 51.8853 85.6909 52 85.4517 52H83.7158C83.6279 52 83.5547 51.9756 83.4961 51.9268C83.4375 51.873 83.4106 51.7827 83.4155 51.6558C83.4399 51.1138 83.5181 50.4985 83.6499 49.8101C83.7866 49.1167 83.9624 48.3989 84.1772 47.6567C84.3921 46.9146 84.6313 46.1895 84.895 45.4814C85.1587 44.7686 85.4321 44.1167 85.7153 43.5259C85.9985 42.9351 86.2744 42.4517 86.543 42.0757C86.6846 41.8755 86.8335 41.729 86.9897 41.6362C87.1509 41.5435 87.3486 41.4971 87.583 41.4971H88.6377C88.877 41.4971 89.0771 41.5435 89.2383 41.6362C89.3994 41.729 89.5508 41.8755 89.6924 42.0757ZM88.0371 43.8115C87.7148 44.3242 87.4194 44.937 87.1509 45.6499C86.8823 46.3628 86.6504 47.0952 86.4551 47.8472H89.6338C89.4287 47.0952 89.1919 46.3628 88.9233 45.6499C88.6548 44.937 88.374 44.3242 88.0811 43.8115H88.0371ZM96.8921 51.6118C96.8921 51.7583 96.8604 51.8608 96.7969 51.9194C96.7383 51.9731 96.6357 52 96.4893 52H94.9292C94.7827 52 94.6777 51.9731 94.6143 51.9194C94.5557 51.8608 94.5264 51.7583 94.5264 51.6118V43.46C94.5264 42.9717 94.5703 42.5859 94.6582 42.3027C94.751 42.0146 94.9268 41.8096 95.1855 41.6875C95.4492 41.5605 95.8325 41.4971 96.3354 41.4971H98.2764C100.825 41.4971 102.1 42.4761 102.1 44.4341C102.1 45.0298 102 45.5181 101.799 45.8989C101.599 46.2798 101.35 46.5776 101.052 46.7925C100.754 47.0024 100.461 47.1611 100.173 47.2686V47.3052C100.5 47.52 100.811 47.8032 101.104 48.1548C101.401 48.5015 101.67 48.8799 101.909 49.29C102.148 49.6953 102.351 50.0981 102.517 50.4985C102.683 50.894 102.798 51.248 102.861 51.5605C102.891 51.707 102.891 51.8169 102.861 51.8901C102.837 51.9634 102.754 52 102.612 52H100.92C100.793 52 100.681 51.9731 100.583 51.9194C100.491 51.8657 100.405 51.7412 100.327 51.5459C99.9561 50.6133 99.5288 49.854 99.0454 49.2681C98.562 48.6772 98.0957 48.2036 97.6465 47.8472C97.3584 47.6177 97.2144 47.4541 97.2144 47.3564C97.2144 47.2783 97.2607 47.1709 97.3535 47.0342C97.4121 46.9512 97.4976 46.8511 97.6099 46.7339C97.7222 46.6167 97.8198 46.5288 97.9028 46.4702C97.9858 46.4116 98.0518 46.375 98.1006 46.3604C98.1543 46.3457 98.2349 46.3384 98.3423 46.3384C98.7036 46.3384 99.0039 46.2139 99.2432 45.9648C99.4873 45.7158 99.6094 45.3228 99.6094 44.7856C99.6094 44.2778 99.48 43.9067 99.2212 43.6724C98.9673 43.4331 98.6157 43.3135 98.1665 43.3135H97.7271C97.4048 43.3135 97.1851 43.3818 97.0679 43.5186C96.9507 43.6553 96.8921 43.8896 96.8921 44.2217V51.6118Z" fill="black"/>
</svg>
