<svg width="120" height="52" viewBox="0 0 30 13" fill="none" xmlns="http://www.w3.org/2000/svg">
<path d="M1.45777 5.12C1.35377 5.12 1.25777 5.08 1.16977 5C1.08977 4.928 1.04977 4.84 1.04977 4.736V0.86C1.04977 0.644 1.12177 0.48 1.26577 0.368C1.41777 0.256 1.57777 0.2 1.74577 0.2H2.92177C3.19377 0.2 3.44577 0.26 3.67777 0.38C3.91777 0.492 4.10977 0.656 4.25377 0.872C4.39777 1.08 4.46977 1.332 4.46977 1.628C4.46977 1.908 4.38577 2.176 4.21777 2.432C4.05777 2.68 3.84977 2.848 3.59377 2.936C3.70577 2.984 3.80977 3.064 3.90577 3.176C4.00977 3.28 4.10177 3.42 4.18177 3.596L4.61377 4.568C4.63777 4.616 4.64977 4.668 4.64977 4.724C4.64977 4.868 4.60177 4.972 4.50577 5.036C4.41777 5.1 4.32577 5.132 4.22977 5.132C4.06977 5.132 3.95777 5.056 3.89377 4.904L3.40177 3.752C3.29777 3.52 3.16577 3.36 3.00577 3.272C2.84577 3.184 2.66977 3.14 2.47777 3.14H2.17777C1.96977 3.14 1.86577 3.26 1.86577 3.5V4.736C1.86577 4.84 1.82577 4.928 1.74577 5C1.66577 5.08 1.56977 5.12 1.45777 5.12ZM2.12977 2.42H2.80177C3.00177 2.42 3.19377 2.356 3.37777 2.228C3.56977 2.092 3.66577 1.9 3.66577 1.652C3.66577 1.412 3.57777 1.232 3.40177 1.112C3.23377 0.992 3.04977 0.932 2.84977 0.932H2.16577C1.96577 0.932 1.86577 1.032 1.86577 1.232V2.144C1.86577 2.328 1.95377 2.42 2.12977 2.42ZM7.65258 5.12C7.19658 5.12 6.78058 5.012 6.40458 4.796C6.03658 4.572 5.74058 4.272 5.51658 3.896C5.30058 3.512 5.19258 3.08 5.19258 2.6C5.19258 2.096 5.30058 1.656 5.51658 1.28C5.74058 0.896 6.04058 0.6 6.41658 0.392C6.80058 0.184 7.22858 0.0799997 7.70058 0.0799997C8.02858 0.0799997 8.33258 0.124 8.61258 0.212C8.89258 0.292 9.15658 0.424 9.40458 0.608C9.50058 0.688 9.54858 0.796 9.54858 0.932C9.54858 1.036 9.51258 1.128 9.44058 1.208C9.37658 1.28 9.28858 1.316 9.17658 1.316C9.10458 1.316 9.02458 1.288 8.93658 1.232C8.74458 1.088 8.54458 0.984 8.33658 0.92C8.12858 0.856 7.92058 0.824 7.71258 0.824C7.22458 0.824 6.82058 0.988 6.50058 1.316C6.18858 1.636 6.03258 2.064 6.03258 2.6C6.03258 3.12 6.18058 3.548 6.47658 3.884C6.78058 4.212 7.17258 4.376 7.65258 4.376C7.94058 4.376 8.19258 4.324 8.40858 4.22C8.63258 4.116 8.80858 3.984 8.93658 3.824C9.07258 3.656 9.14858 3.492 9.16458 3.332C9.16458 3.204 9.10058 3.14 8.97258 3.14H8.12058C7.85658 3.14 7.72458 3.016 7.72458 2.768C7.72458 2.656 7.76058 2.568 7.83258 2.504C7.90458 2.44 8.00058 2.408 8.12058 2.408H9.48858C9.66458 2.408 9.79258 2.448 9.87258 2.528C9.95258 2.6 9.99258 2.744 9.99258 2.96C9.99258 3.352 9.89258 3.712 9.69258 4.04C9.50058 4.368 9.22858 4.632 8.87658 4.832C8.52458 5.024 8.11658 5.12 7.65258 5.12ZM11.4949 5C11.3269 5 11.1749 4.944 11.0389 4.832C10.9029 4.712 10.8349 4.548 10.8349 4.34V0.824C10.8349 0.64 10.8949 0.492 11.0149 0.38C11.1429 0.26 11.2909 0.2 11.4589 0.2H12.5869C12.9629 0.2 13.2949 0.304 13.5829 0.512C13.8709 0.712 14.0149 1 14.0149 1.376C14.0149 1.576 13.9709 1.764 13.8829 1.94C13.8029 2.108 13.6949 2.236 13.5589 2.324C13.7909 2.404 13.9749 2.552 14.1109 2.768C14.2469 2.976 14.3149 3.224 14.3149 3.512C14.3149 3.992 14.1709 4.36 13.8829 4.616C13.5949 4.872 13.2349 5 12.8029 5H11.4949ZM11.9629 4.268H12.8029C13.0589 4.268 13.2429 4.192 13.3549 4.04C13.4749 3.88 13.5349 3.708 13.5349 3.524C13.5349 3.356 13.4789 3.196 13.3669 3.044C13.2549 2.892 13.0829 2.816 12.8509 2.816H11.9149C11.7389 2.816 11.6509 2.908 11.6509 3.092V3.956C11.6509 4.164 11.7549 4.268 11.9629 4.268ZM11.9149 2.144H12.6109C12.8109 2.144 12.9629 2.076 13.0669 1.94C13.1709 1.804 13.2229 1.66 13.2229 1.508C13.2229 1.364 13.1709 1.232 13.0669 1.112C12.9709 0.984 12.8189 0.92 12.6109 0.92H11.9749C11.7589 0.92 11.6509 1.024 11.6509 1.232V1.868C11.6509 2.052 11.7389 2.144 11.9149 2.144ZM18.2215 5C18.0215 5 17.8615 4.94 17.7415 4.82C17.6215 4.7 17.5615 4.54 17.5615 4.34V0.536C17.5615 0.4 17.6055 0.3 17.6935 0.236C17.7895 0.172 17.8895 0.14 17.9935 0.14C18.0975 0.14 18.1895 0.172 18.2695 0.236C18.3575 0.3 18.4015 0.4 18.4015 0.536V3.944C18.4015 4.064 18.4255 4.148 18.4735 4.196C18.5215 4.236 18.6015 4.256 18.7135 4.256H19.9495C20.0775 4.256 20.1695 4.296 20.2255 4.376C20.2895 4.456 20.3215 4.54 20.3215 4.628C20.3215 4.724 20.2895 4.812 20.2255 4.892C20.1695 4.964 20.0775 5 19.9495 5H18.2215ZM21.8777 5C21.6777 5 21.5177 4.94 21.3977 4.82C21.2777 4.7 21.2177 4.54 21.2177 4.34V0.824C21.2177 0.64 21.2777 0.492 21.3977 0.38C21.5257 0.26 21.6737 0.2 21.8417 0.2H23.6537C23.7897 0.2 23.8857 0.236 23.9417 0.308C24.0057 0.372 24.0377 0.456 24.0377 0.56C24.0377 0.656 24.0017 0.74 23.9297 0.812C23.8657 0.884 23.7737 0.92 23.6537 0.92H22.3697C22.1617 0.92 22.0577 1.024 22.0577 1.232V1.892C22.0577 2.1 22.1537 2.204 22.3457 2.204H23.5337C23.6697 2.204 23.7657 2.24 23.8217 2.312C23.8857 2.384 23.9177 2.468 23.9177 2.564C23.9177 2.652 23.8817 2.736 23.8097 2.816C23.7457 2.888 23.6537 2.924 23.5337 2.924H22.3457C22.1537 2.924 22.0577 3.024 22.0577 3.224V3.956C22.0577 4.164 22.1577 4.268 22.3577 4.268H23.7737C23.9097 4.268 24.0057 4.308 24.0617 4.388C24.1257 4.46 24.1577 4.544 24.1577 4.64C24.1577 4.736 24.1217 4.82 24.0497 4.892C23.9857 4.964 23.8937 5 23.7737 5H21.8777ZM25.7575 5C25.5895 5 25.4295 4.944 25.2775 4.832C25.1335 4.72 25.0615 4.56 25.0615 4.352V0.824C25.0615 0.64 25.1215 0.492 25.2415 0.38C25.3695 0.26 25.5175 0.2 25.6855 0.2H26.7655C27.2455 0.2 27.6655 0.3 28.0255 0.5C28.3935 0.692 28.6775 0.968 28.8775 1.328C29.0855 1.688 29.1895 2.12 29.1895 2.624C29.1895 3.064 29.0935 3.464 28.9015 3.824C28.7175 4.184 28.4575 4.472 28.1215 4.688C27.7935 4.896 27.4135 5 26.9815 5H25.7575ZM26.2495 4.256H26.7775C27.2975 4.256 27.6935 4.12 27.9655 3.848C28.2375 3.568 28.3695 3.16 28.3615 2.624C28.3535 2.08 28.2135 1.664 27.9415 1.376C27.6695 1.088 27.2775 0.944 26.7655 0.944H26.2615C26.0215 0.944 25.9015 1.064 25.9015 1.304V3.896C25.9015 4.136 26.0175 4.256 26.2495 4.256Z" fill="white"/>
<path d="M3.5 6.5H26.5C28.1569 6.5 29.5 7.84315 29.5 9.5C29.5 11.1569 28.1569 12.5 26.5 12.5H3.5C1.84315 12.5 0.5 11.1569 0.5 9.5C0.5 7.84315 1.84315 6.5 3.5 6.5Z" stroke="url(#paint0_linear_0_1)"/>
<path d="M7.68884 11.09C7.28684 11.09 6.95684 10.961 6.69884 10.703C6.44084 10.445 6.31184 10.109 6.31184 9.695C6.31184 9.431 6.37184 9.197 6.49184 8.993C6.61184 8.789 6.77384 8.63 6.97784 8.516C7.18784 8.402 7.42484 8.345 7.68884 8.345C8.04884 8.345 8.35484 8.429 8.60684 8.597C8.69084 8.651 8.73284 8.726 8.73284 8.822C8.73284 8.918 8.70284 8.993 8.64284 9.047C8.58284 9.101 8.51384 9.128 8.43584 9.128C8.38184 9.128 8.33384 9.116 8.29184 9.092C8.06984 8.942 7.86284 8.876 7.67084 8.894C7.43684 8.918 7.25384 8.999 7.12184 9.137C6.98984 9.269 6.92384 9.458 6.92384 9.704C6.92384 9.962 6.99284 10.166 7.13084 10.316C7.27484 10.46 7.47584 10.532 7.73384 10.532C7.96184 10.532 8.18984 10.445 8.41784 10.271C8.46584 10.229 8.52884 10.208 8.60684 10.208C8.69684 10.208 8.76284 10.244 8.80484 10.316C8.85284 10.382 8.87684 10.445 8.87684 10.505C8.87684 10.589 8.83784 10.667 8.75984 10.739C8.60984 10.871 8.44484 10.961 8.26484 11.009C8.08484 11.063 7.89284 11.09 7.68884 11.09ZM13.0394 8.642C13.0394 8.558 13.0664 8.489 13.1204 8.435C13.1804 8.375 13.2554 8.345 13.3454 8.345C13.4294 8.345 13.5014 8.375 13.5614 8.435C13.6214 8.489 13.6514 8.558 13.6514 8.642V9.911C13.6514 10.181 13.5914 10.403 13.4714 10.577C13.3514 10.751 13.1954 10.88 13.0034 10.964C12.8114 11.048 12.6074 11.09 12.3914 11.09C12.1754 11.09 11.9714 11.048 11.7794 10.964C11.5874 10.88 11.4314 10.751 11.3114 10.577C11.1914 10.403 11.1314 10.181 11.1314 9.911V8.642C11.1314 8.558 11.1584 8.489 11.2124 8.435C11.2724 8.375 11.3474 8.345 11.4374 8.345C11.5214 8.345 11.5934 8.375 11.6534 8.435C11.7134 8.489 11.7434 8.558 11.7434 8.642V9.911C11.7434 10.133 11.8094 10.292 11.9414 10.388C12.0734 10.484 12.2234 10.532 12.3914 10.532C12.5654 10.532 12.7154 10.484 12.8414 10.388C12.9734 10.292 13.0394 10.133 13.0394 9.911V8.642ZM17.5286 11.09C17.3606 11.09 17.2106 11.06 17.0786 11C16.9466 10.946 16.8326 10.871 16.7366 10.775V10.811C16.7366 10.901 16.7036 10.97 16.6376 11.018C16.5776 11.066 16.5086 11.09 16.4306 11.09C16.3526 11.09 16.2806 11.066 16.2146 11.018C16.1546 10.97 16.1246 10.901 16.1246 10.811V7.391C16.1246 7.289 16.1546 7.214 16.2146 7.166C16.2806 7.112 16.3526 7.085 16.4306 7.085C16.5086 7.085 16.5776 7.112 16.6376 7.166C16.7036 7.214 16.7366 7.289 16.7366 7.391V8.651C16.8326 8.555 16.9466 8.48 17.0786 8.426C17.2106 8.372 17.3606 8.345 17.5286 8.345C17.7926 8.345 18.0236 8.405 18.2216 8.525C18.4256 8.639 18.5846 8.798 18.6986 9.002C18.8126 9.206 18.8696 9.437 18.8696 9.695C18.8696 9.959 18.8126 10.199 18.6986 10.415C18.5846 10.625 18.4256 10.79 18.2216 10.91C18.0236 11.03 17.7926 11.09 17.5286 11.09ZM17.4746 10.532C17.7086 10.532 17.8976 10.457 18.0416 10.307C18.1856 10.151 18.2576 9.947 18.2576 9.695C18.2576 9.455 18.1856 9.263 18.0416 9.119C17.8976 8.975 17.7086 8.903 17.4746 8.903C17.2466 8.903 17.0666 8.975 16.9346 9.119C16.8026 9.263 16.7366 9.455 16.7366 9.695C16.7366 9.947 16.8026 10.151 16.9346 10.307C17.0666 10.457 17.2466 10.532 17.4746 10.532ZM22.4645 11.09C22.0145 11.09 21.6635 10.961 21.4115 10.703C21.1595 10.445 21.0335 10.097 21.0335 9.659C21.0335 9.275 21.1595 8.96 21.4115 8.714C21.6695 8.468 21.9995 8.345 22.4015 8.345C22.7915 8.345 23.1035 8.459 23.3375 8.687C23.5715 8.909 23.6885 9.185 23.6885 9.515C23.6885 9.647 23.6525 9.746 23.5805 9.812C23.5145 9.878 23.4275 9.911 23.3195 9.911H21.7535C21.6935 9.911 21.6725 9.944 21.6905 10.01C21.7385 10.178 21.8345 10.31 21.9785 10.406C22.1285 10.496 22.2965 10.541 22.4825 10.541C22.6205 10.541 22.7525 10.523 22.8785 10.487C23.0105 10.451 23.1245 10.397 23.2205 10.325C23.2505 10.301 23.2895 10.289 23.3375 10.289C23.4035 10.289 23.4635 10.319 23.5175 10.379C23.5715 10.433 23.5985 10.499 23.5985 10.577C23.5985 10.613 23.5925 10.649 23.5805 10.685C23.5685 10.721 23.5415 10.757 23.4995 10.793C23.3435 10.907 23.1755 10.985 22.9955 11.027C22.8215 11.069 22.6445 11.09 22.4645 11.09ZM22.9865 9.443C23.0225 9.443 23.0405 9.425 23.0405 9.389C23.0405 9.251 22.9775 9.131 22.8515 9.029C22.7315 8.927 22.5815 8.876 22.4015 8.876C22.2455 8.876 22.0955 8.918 21.9515 9.002C21.8135 9.086 21.7295 9.197 21.6995 9.335C21.6995 9.335 21.6995 9.338 21.6995 9.344C21.6935 9.368 21.6905 9.389 21.6905 9.407C21.6965 9.425 21.7235 9.434 21.7715 9.434L22.9865 9.443Z" fill="white"/>
<defs>
<linearGradient id="paint0_linear_0_1" x1="0" y1="9.5" x2="30" y2="9.5" gradientUnits="userSpaceOnUse">
<stop offset="0.055" stop-color="#FF0000"/>
<stop offset="0.495" stop-color="#A0FF97"/>
<stop offset="0.945" stop-color="#6F6AFF"/>
</linearGradient>
</defs>
</svg>
