<svg preserveAspectRatio="xMidYMid meet" data-bbox="1.175 0.518 56.802 9.192" xmlns="http://www.w3.org/2000/svg" viewBox="0 0 59 10" height="10" width="59" data-type="ugc" role="presentation" aria-hidden="true" aria-label="" wixshapeid="63b7bf_974b0da28e7940beb4f50c956b01ba45.svg">
    <g>
        <path fill="#ffffff" d="M54.2 6.997v.77c0 .56.16 1 .48 1.32.32.32.764.48 1.332.48h1.765a.2.2 0 0 0 .2-.2V8.253a.2.2 0 0 0-.2-.2h-1.3a.393.393 0 0 1-.288-.12.369.369 0 0 1-.12-.288v-.65H54.2Z"></path>
        <path fill="#ffffff" d="M20.226 2.714a1.05 1.05 0 0 1-.768-.324 1.05 1.05 0 0 1-.324-.768c0-.296.108-.552.324-.768.216-.224.472-.336.768-.336.296 0 .552.112.768.336.216.216.324.472.324.768 0 .296-.108.552-.324.768a1.05 1.05 0 0 1-.768.324Z"></path>
        <path fill="#ffffff" d="M19.485 3.422a.2.2 0 0 0-.2.2v4.144c0 .56.16 1 .48 1.32.32.32.764.48 1.332.48h.948V8.054h-.492a.393.393 0 0 1-.288-.12.368.368 0 0 1-.12-.288V3.622a.2.2 0 0 0-.2-.2h-1.46Z"></path>
        <path fill="#ffffff" d="M19.288 7.898h1.392v1.636a1.63 1.63 0 0 1-.915-.448c-.295-.294-.454-.69-.477-1.188Zm-.5 0c.024.605.218 1.136.623 1.542.045.044.091.087.139.126h-2.19c-.36 0-.687-.084-.983-.252a1.967 1.967 0 0 1-.696-.684l-1.64-2.964a.2.2 0 0 1 .173-.297l.639-.003c.232 0 .448-.048.648-.144.2-.104.356-.248.468-.432.12-.192.18-.42.18-.684 0-.264-.06-.488-.18-.672a1.137 1.137 0 0 0-.48-.432 1.314 1.314 0 0 0-.636-.156h-1.596v6.52a.2.2 0 0 1-.2.2H11.44a.2.2 0 0 1-.2-.2v-8c0-.11.09-.2.2-.2h3.64c.568 0 1.084.124 1.548.372.472.248.844.592 1.116 1.032.28.44.42.948.42 1.524 0 .536-.128 1.02-.384 1.452a3.108 3.108 0 0 1-1.008 1.032l.672 1.14c.04.056.084.1.132.132a.432.432 0 0 0 .216.048h.994Z" clip-rule="evenodd" fill-rule="evenodd"></path>
        <path fill="#ffffff" d="M45.142 9.71c-.664 0-1.244-.136-1.74-.408a2.833 2.833 0 0 1-1.152-1.164c-.272-.504-.408-1.092-.408-1.764V1.006c0-.11.09-.2.2-.2h1.46c.11 0 .2.09.2.2v3.076h.036c.12-.168.268-.312.444-.432.184-.128.384-.224.6-.288.224-.064.46-.096.708-.096.584 0 1.096.132 1.536.396.44.264.784.628 1.032 1.092.256.464.384 1.008.384 1.632 0 .48-.076.924-.228 1.332a3.116 3.116 0 0 1-.66 1.068 2.81 2.81 0 0 1-1.032.684c-.4.16-.86.24-1.38.24Zm0-1.608c.288 0 .536-.068.744-.204.208-.144.368-.336.48-.576.12-.248.18-.524.18-.828a1.8 1.8 0 0 0-.18-.816 1.327 1.327 0 0 0-.48-.564 1.274 1.274 0 0 0-.744-.216c-.288 0-.54.072-.756.216a1.327 1.327 0 0 0-.48.564c-.112.24-.168.512-.168.816 0 .304.056.58.168.828.112.24.272.432.48.576.216.136.468.204.756.204Z"></path>
        <path fill="#ffffff" d="M37.659 9.566a.2.2 0 0 1-.2-.2V5.222c0-.56.16-1 .48-1.32.32-.32.764-.48 1.332-.48h1.588c.11 0 .2.09.2.2v1.112a.2.2 0 0 1-.2.2h-1.132a.393.393 0 0 0-.288.12.368.368 0 0 0-.12.288v4.024a.2.2 0 0 1-.2.2h-1.46Z"></path>
        <path fill="#ffffff" d="M33.078 9.71c-.632 0-1.2-.14-1.704-.42a3.191 3.191 0 0 1-1.2-1.152 3.173 3.173 0 0 1-.432-1.644c0-.616.144-1.164.432-1.644a3.191 3.191 0 0 1 1.2-1.152 3.373 3.373 0 0 1 1.704-.432c.632 0 1.196.144 1.692.432.504.28.9.664 1.188 1.152.296.48.444 1.028.444 1.644 0 .608-.148 1.156-.444 1.644A3.102 3.102 0 0 1 34.77 9.29c-.504.28-1.068.42-1.692.42Zm0-1.62c.296 0 .552-.072.768-.216.216-.144.384-.336.504-.576a1.8 1.8 0 0 0 .18-.816c0-.296-.06-.564-.18-.804a1.467 1.467 0 0 0-.504-.576 1.352 1.352 0 0 0-.768-.216 1.41 1.41 0 0 0-.78.216 1.467 1.467 0 0 0-.504.576c-.12.24-.18.508-.18.804 0 .304.06.576.18.816s.288.432.504.576c.224.144.484.216.78.216Z"></path>
        <path fill="#ffffff" d="M22.842 9.566a.2.2 0 0 1-.2-.2v-3.34c0-.512.124-.976.372-1.392a2.7 2.7 0 0 1 1.056-.996c.464-.248 1.012-.372 1.644-.372.64 0 1.184.124 1.632.372.456.248.804.58 1.044.996.24.416.36.88.36 1.392v3.34a.2.2 0 0 1-.2.2h-1.46a.2.2 0 0 1-.2-.2V6.074c0-.216-.052-.412-.156-.588a1.12 1.12 0 0 0-.432-.432 1.094 1.094 0 0 0-.6-.168 1.176 1.176 0 0 0-1.044.6 1.134 1.134 0 0 0-.156.588v3.292a.2.2 0 0 1-.2.2h-1.46Z"></path>
        <path fill="#ffffff" d="M50.478 2.714a1.05 1.05 0 0 1-.768-.324 1.05 1.05 0 0 1-.324-.768c0-.296.108-.552.324-.768.216-.224.472-.336.768-.336.296 0 .552.112.768.336.216.216.324.472.324.768 0 .296-.108.552-.324.768a1.05 1.05 0 0 1-.768.324Z"></path>
        <path fill="#ffffff" d="M49.737 3.422a.2.2 0 0 0-.2.2v4.144c0 .56.16 1 .48 1.32.32.32.764.48 1.332.48h.748a.2.2 0 0 0 .2-.2V8.254a.2.2 0 0 0-.2-.2h-.292a.393.393 0 0 1-.288-.12.368.368 0 0 1-.12-.288V3.622a.2.2 0 0 0-.2-.2h-1.46Z"></path>
        <path stroke-width=".4" stroke="#ffffff" d="M54.2 3.622h.2V1.72h1.468v1.903h1.903v1.469h-1.903v1.903H54.4V5.09h-1.903V3.622H54.2Z" fill="none"></path>
        <path fill="#ffffff" d="M4.162.518H6.15v1.988H4.162V.518Z" clip-rule="evenodd" fill-rule="evenodd"></path>
        <path fill="#ffffff" d="M3.591 8.138H4.6v1.009H3.591V8.138Z" clip-rule="evenodd" fill-rule="evenodd"></path>
        <path fill="#ffffff" d="M7.133 1.204h1.06v1.06h-1.06v-1.06Z" clip-rule="evenodd" fill-rule="evenodd"></path>
        <path fill="#ffffff" d="M2.097 4.253h.784v.785h-.784v-.785Z" clip-rule="evenodd" fill-rule="evenodd"></path>
        <path fill="#ffffff" d="M8.144 6.9h.764v.764h-.764V6.9Z" clip-rule="evenodd" fill-rule="evenodd"></path>
        <path fill="#ffffff" d="M8.194 2.695h1.825v1.824H8.194V2.695Z" clip-rule="evenodd" fill-rule="evenodd"></path>
        <path fill="#ffffff" d="M1.694 2.028h1.63v1.63h-1.63v-1.63Z" clip-rule="evenodd" fill-rule="evenodd"></path>
        <path fill="#ffffff" d="M5.953 7.747h1.82v1.82h-1.82v-1.82Z" clip-rule="evenodd" fill-rule="evenodd"></path>
        <path fill="#ffffff" d="M1.175 6.589h1.55v1.55h-1.55v-1.55Z" clip-rule="evenodd" fill-rule="evenodd"></path>
        <path fill="#ffffff" d="M3.805 5.23h-.612v2.332h2.332V6.77h-1.72V5.23Z" clip-rule="evenodd" fill-rule="evenodd"></path>
        <path fill="#ffffff" d="M6.666 2.894H5.67v.36h.997v-.36Z" clip-rule="evenodd" fill-rule="evenodd"></path>
        <path fill="#ffffff" d="M7.322 6.306h.958V4.858h-.958v1.448Z" clip-rule="evenodd" fill-rule="evenodd"></path>
        <path fill="#ffffff" d="M5.67 3.254H3.804V5.23h1.72v1.54h1.797v-.464h-.49V4.858h.49V3.254h-.656v.637H5.67v-.637Z" clip-rule="evenodd" fill-rule="evenodd"></path>
    </g>
</svg>